<?xml version="1.0" encoding="utf-8"?>
<!-- Generator: Adobe Illustrator 27.7.0, SVG Export Plug-In . SVG Version: 6.00 Build 0)  -->
<svg version="1.1" id="Camada_1" xmlns="http://www.w3.org/2000/svg" xmlns:xlink="http://www.w3.org/1999/xlink" x="0px" y="0px"
	 viewBox="0 0 1920 1080" style="enable-background:new 0 0 1920 1080;" xml:space="preserve">
<style type="text/css">
	.st0{fill:#006E47;}
	.st1{fill:#63C048;}
</style>
<g>
	<path class="st0" d="M280.7,423.6H163.3V504h137.9v51H106.6V240.9h190.5v51H163.3v80.8h117.5V423.6z"/>
	<path class="st0" d="M567.7,362.9l-83.6,85.3l-84-85.3V555h-56.7V231.5l141.1,138.3l139.9-138.3V555h-56.7V362.9z"/>
	<path class="st0" d="M1301.4,291.9h-103.6V555h-56.7V291.9h-102.8v-51h263.1V291.9z"/>
	<path class="st0" d="M1517.9,423.6h-117.5V504h137.9v51h-194.6V240.9h190.5v51h-133.8v80.8h117.5V423.6z"/>
	<path class="st0" d="M1637.2,555h-56.7V240.9h101.2c14.7,0,28.6,2,41.8,5.9c13.2,3.9,24.7,9.8,34.7,17.5
		c9.9,7.8,17.9,17.5,23.9,29.4c6,11.8,9,25.6,9,41.4c0,10.6-1.6,20.5-4.9,29.6c-3.3,9.1-7.8,17.3-13.7,24.7
		c-5.9,7.3-12.7,13.7-20.6,19c-7.9,5.3-16.3,9.6-25.3,12.8l86.9,133.8h-63.6l-79.5-126h-33V555z M1637.2,377.9h44.9
		c6.8,0,13.3-1.1,19.6-3.3c6.3-2.2,11.8-5.2,16.7-9c4.9-3.8,8.8-8.3,11.6-13.5c2.9-5.2,4.3-10.9,4.3-17.1c0-7.3-1.4-13.7-4.3-19
		c-2.9-5.3-6.7-9.8-11.6-13.5c-4.9-3.7-10.5-6.4-16.9-8.2c-6.4-1.8-13-2.7-19.8-2.7h-44.5V377.9z"/>
	<polygon class="st0" points="907.1,231.5 955.1,231.5 1098.3,555 1050.3,555 	"/>
	<polygon class="st0" points="1001.6,555 953.6,555 882.9,395.4 859,341.2 882.9,286.9 906.9,341.1 	"/>
	<polygon class="st1" points="862.8,231.5 814.8,231.5 671.6,555 719.6,555 	"/>
	<polygon class="st1" points="955.5,231.5 906.9,341.1 882.9,395.4 812.2,555 764.3,555 859,341.2 882.9,286.9 907.5,231.5 	"/>
	<polygon class="st0" points="883.7,500.7 857.7,555 909.6,555 	"/>
	<g>
		<path class="st1" d="M253.2,723.2l-52.9,53.9l-53.1-53.9v121.4h-35.8V640.2l89.2,87.4l88.4-87.4v204.5h-35.8V723.2z"/>
		<path class="st1" d="M375.4,666.7c0,5.5-1.7,9.9-5.2,13.3c-3.4,3.4-7.9,5-13.4,5c-5.3,0-9.7-1.7-13-5c-3.4-3.4-5-7.8-5-13.3
			c0-5.5,1.7-9.9,5-13.1c3.4-3.3,7.7-4.9,13-4.9c5.5,0,10,1.6,13.4,4.9C373.7,656.8,375.4,661.2,375.4,666.7z M340.6,844.6V715.7h33
			v128.9H340.6z"/>
		<path class="st1" d="M531.2,844.6h-33v-82.8c0-2.4-0.4-4.8-1.3-7.2c-0.9-2.4-2-4.6-3.5-6.6c-1.5-2-3.2-3.6-5.3-4.9
			c-2.1-1.3-4.3-1.9-6.7-1.9c-4.5,0-8.4,1.1-11.7,3.4c-3.4,2.2-6.2,5.1-8.5,8.5c-2.3,3.4-4,7.2-5.2,11.3c-1.1,4.1-1.7,8.2-1.7,12.1
			v68.1h-33V715.7h33v12.6c1-1.5,2.6-3.3,4.6-5.2c2.1-1.9,4.5-3.7,7.2-5.4c2.7-1.7,5.9-3.2,9.4-4.4c3.5-1.2,7.3-1.8,11.5-1.8
			c6.9,0,13,1.4,18.4,4.1c5.4,2.8,10,6.4,13.8,11c3.8,4.6,6.7,9.9,8.8,16c2.1,6.1,3.1,12.5,3.1,19.2V844.6z"/>
		<path class="st1" d="M683.3,844.6h-33v-9.8c-1.4,1.2-3.1,2.6-5,4.1c-2,1.5-4.3,3.1-7.1,4.5c-2.8,1.5-6,2.7-9.7,3.6
			c-3.7,0.9-7.9,1.4-12.5,1.4c-6,0-11.6-1-16.8-3c-5.2-2-9.6-4.9-13.4-8.6c-3.8-3.8-6.7-8.3-8.9-13.4c-2.2-5.2-3.2-11-3.2-17.5
			c0-7.9,1.8-14.4,5.3-19.5c3.5-5.1,8-9,13.4-11.9c5.4-2.8,11.3-4.8,17.8-5.8c6.4-1,12.5-1.5,18.2-1.5c3.4,0,7.2,0.1,11.3,0.3
			c4.1,0.2,7.6,0.4,10.6,0.8v-8.5c0-2.7-0.7-5.3-2.1-7.6c-1.4-2.3-3.1-4.3-5-5.9c-2-1.6-4.1-2.9-6.4-3.7c-2.3-0.9-4.5-1.3-6.6-1.3
			c-4.6,0-9.6,0.6-14.8,1.9c-5.2,1.3-10.7,4.4-16.4,9.4l-19.6-20.1c4.6-4.3,9-7.8,13.1-10.6c4.1-2.7,8.3-4.9,12.4-6.4
			c4.1-1.5,8.3-2.6,12.4-3.1c4.1-0.5,8.4-0.8,12.9-0.8c6.9,0,13.5,1.2,20,3.5c6.4,2.3,12.1,5.6,17,9.8c4.9,4.2,8.8,9.3,11.7,15.2
			c2.9,5.9,4.4,12.5,4.4,19.7V844.6z M621.9,818.3c4.1,0,7.9-0.6,11.5-1.7c3.5-1.1,6.5-2.6,9-4.4c2.5-1.8,4.4-3.7,5.8-5.8
			c1.4-2.1,2.1-4,2.1-5.9v-7.7c-2.8-0.3-5.8-0.6-9-0.6c-3.3-0.1-6.1-0.1-8.5-0.1c-3.3,0-6.4,0.2-9.5,0.6c-3.1,0.4-5.8,1.2-8.3,2.2
			c-2.4,1-4.3,2.4-5.8,4.3c-1.5,1.8-2.2,4.1-2.2,6.8c0,1.5,0.5,3.1,1.4,4.6c0.9,1.6,2.1,2.9,3.5,4c1.4,1.1,3,2,4.8,2.7
			C618.4,818,620.2,818.3,621.9,818.3z"/>
		<path class="st1" d="M775.1,848.5c-7.4,0-15.1-1.2-23.1-3.5c-8-2.3-16.3-6.5-24.9-12.5l15.7-23.2c6.5,4.6,12.5,7.4,17.9,8.3
			c5.4,0.9,10.2,1.3,14.3,1.3c5,0,8.8-0.9,11.3-2.8c2.6-1.9,3.9-4.6,3.9-8c0-3.3-1.5-6-4.5-8.1c-3-2.1-6.7-4.1-11.1-5.9
			s-9.2-3.7-14.4-5.8c-5.2-2.1-10.1-4.6-14.4-7.7c-4.4-3.1-8.1-7-11.1-11.6c-3-4.6-4.5-10.5-4.5-17.5c0-6.7,1.2-12.5,3.7-17.5
			c2.5-5,5.9-9.1,10.2-12.4c4.3-3.3,9.3-5.7,15-7.3c5.7-1.6,11.6-2.4,17.8-2.4c3.4,0,6.8,0.2,10.1,0.6c3.3,0.4,6.6,1.3,10.1,2.6
			c3.4,1.3,7.1,3,11,5.2c3.9,2.2,8.1,4.9,12.8,8.1l-15.5,23.2c-3.6-2.6-6.8-4.6-9.7-5.9c-2.8-1.4-5.3-2.4-7.5-3
			c-2.1-0.6-4.1-0.9-5.9-1c-1.8-0.1-3.6-0.1-5.3-0.1c-4.6,0-8,0.9-10.2,2.8c-2.2,1.9-3.2,4.3-3.2,7.2c0,2.7,1.5,5,4.4,6.8
			c2.9,1.8,6.6,3.6,11.1,5.4c4.5,1.8,9.3,3.8,14.4,5.9c5.2,2.2,10,4.9,14.4,8.3c4.5,3.4,8.2,7.4,11.1,12.2
			c2.9,4.8,4.4,10.8,4.4,18.1c0,7.2-1.2,13.4-3.5,18.6c-2.3,5.2-5.6,9.4-9.8,12.6c-4.2,3.3-9.3,5.6-15.2,7.1
			C788.9,847.8,782.3,848.5,775.1,848.5z"/>
		<path class="st1" d="M1086.8,847.2c-15.1,0-29-2.7-41.5-8c-12.5-5.3-23.3-12.6-32.4-21.8c-9-9.2-16-20-21-32.4
			c-5-12.4-7.5-25.5-7.5-39.4c0-14.6,2.5-28.1,7.6-40.6c5.1-12.5,12.2-23.2,21.3-32.4c9.1-9.1,19.9-16.2,32.5-21.4
			c12.5-5.2,26.2-7.7,41-7.7c10.7,0,21.7,1.5,33.1,4.6c11.4,3.1,23.2,8.8,35.2,17l-17,26.6c-9.3-6-18.4-10.2-27.3-12.5
			c-8.9-2.3-16.9-3.5-24-3.5c-9.8,0-18.7,1.8-26.8,5.4c-8.1,3.6-15,8.6-20.8,15c-5.8,6.4-10.3,13.8-13.5,22.2
			c-3.3,8.4-4.9,17.5-4.9,27.3c0,9.5,1.6,18.4,4.9,26.8c3.3,8.4,7.9,15.8,13.8,22c5.9,6.3,12.9,11.3,20.9,15
			c8,3.7,16.8,5.5,26.4,5.5c6,0,12.5-0.9,19.6-2.6c7-1.7,13.6-4.3,19.6-7.7v-30.2h-36.4v-32.2h70.4v78.6
			c-10.5,7.6-21.9,13.8-34.3,18.8C1113.4,844.7,1100.4,847.2,1086.8,847.2z"/>
		<path class="st1" d="M1269.6,848.5c-9.1,0-17.8-1.8-26-5.5c-8.3-3.7-15.5-8.7-21.8-15c-6.3-6.3-11.3-13.5-15-21.8
			c-3.7-8.3-5.5-16.9-5.5-26c0-9.1,1.6-17.8,4.9-26.2c3.3-8.3,7.9-15.6,13.8-21.9s13-11.3,21.1-15c8.2-3.7,17.1-5.5,26.7-5.5
			c8.3,0,16.2,1.5,23.7,4.4c7.6,2.9,14.3,7.2,20.2,12.9c5.9,5.7,10.7,12.7,14.2,21c3.5,8.3,5.3,18,5.3,29v4.1h-95.7
			c0.5,4.3,1.8,8.6,3.7,12.8c2,4.2,4.6,8,7.9,11.5c3.3,3.4,7,6.2,11.2,8.4c4.2,2.2,8.7,3.2,13.5,3.2c2.1,0,4.4-0.1,7.1-0.3
			c2.7-0.2,5.5-0.6,8.6-1.4c3.1-0.8,6.5-2,10.2-3.7c3.7-1.7,7.7-4,12-7l16.8,24.2c-9.8,7.6-19.4,12.4-28.8,14.6
			S1279.1,848.5,1269.6,848.5z M1295.9,759.8c-1.5-5-4.7-9.3-9.4-13c-4.7-3.7-11-5.5-18.7-5.5c-7.7,0-14.1,1.8-19.1,5.5
			c-5,3.7-8.3,8-10.1,13H1295.9z"/>
		<path class="st1" d="M1442.9,749c-2.9-2.1-5.4-3.7-7.3-4.8c-2-1.1-3.7-1.9-5-2.3c-1.4-0.4-2.5-0.6-3.5-0.6c-0.9,0-1.8,0-2.5,0
			c-3.6,0-6.7,1.2-9.2,3.6c-2.5,2.4-4.6,5.4-6.2,9c-1.6,3.6-2.8,7.5-3.6,11.6c-0.8,4.1-1.2,7.8-1.2,11.1v68.1h-33V715.7h33v10.8
			c1-1.4,2.4-2.9,4-4.6c1.6-1.7,3.6-3.4,5.9-4.9c2.3-1.5,5-2.8,8.1-3.9c3.1-1,6.6-1.5,10.6-1.5c5.2,0,9.6,1.2,13.3,3.5
			c3.7,2.3,7.8,5.5,12.2,9.4L1442.9,749z"/>
		<path class="st1" d="M1591.4,844.6h-33v-9.8c-1.4,1.2-3.1,2.6-5,4.1c-2,1.5-4.3,3.1-7.1,4.5c-2.8,1.5-6,2.7-9.7,3.6
			c-3.7,0.9-7.9,1.4-12.5,1.4c-6,0-11.6-1-16.8-3c-5.2-2-9.6-4.9-13.4-8.6c-3.8-3.8-6.7-8.3-8.9-13.4c-2.2-5.2-3.2-11-3.2-17.5
			c0-7.9,1.8-14.4,5.3-19.5c3.5-5.1,8-9,13.4-11.9c5.4-2.8,11.3-4.8,17.8-5.8c6.4-1,12.5-1.5,18.2-1.5c3.4,0,7.2,0.1,11.3,0.3
			c4.1,0.2,7.6,0.4,10.6,0.8v-8.5c0-2.7-0.7-5.3-2.1-7.6c-1.4-2.3-3.1-4.3-5-5.9c-2-1.6-4.1-2.9-6.4-3.7c-2.3-0.9-4.5-1.3-6.6-1.3
			c-4.6,0-9.6,0.6-14.8,1.9c-5.2,1.3-10.7,4.4-16.4,9.4l-19.6-20.1c4.6-4.3,9-7.8,13.2-10.6c4.1-2.7,8.3-4.9,12.4-6.4
			s8.3-2.6,12.4-3.1c4.1-0.5,8.4-0.8,12.9-0.8c6.9,0,13.5,1.2,20,3.5s12.1,5.6,17,9.8c4.9,4.2,8.8,9.3,11.7,15.2s4.4,12.5,4.4,19.7
			V844.6z M1530.1,818.3c4.1,0,8-0.6,11.5-1.7c3.5-1.1,6.5-2.6,9-4.4c2.5-1.8,4.4-3.7,5.8-5.8c1.4-2.1,2.1-4,2.1-5.9v-7.7
			c-2.8-0.3-5.8-0.6-9-0.6c-3.3-0.1-6.1-0.1-8.5-0.1c-3.3,0-6.4,0.2-9.5,0.6c-3.1,0.4-5.8,1.2-8.3,2.2c-2.4,1-4.3,2.4-5.8,4.3
			c-1.5,1.8-2.2,4.1-2.2,6.8c0,1.5,0.5,3.1,1.4,4.6c0.9,1.6,2.1,2.9,3.5,4c1.4,1.1,3,2,4.8,2.7
			C1526.6,818,1528.3,818.3,1530.1,818.3z"/>
		<path class="st1" d="M1673.9,666.7c0,5.5-1.7,9.9-5.2,13.3c-3.4,3.4-7.9,5-13.4,5c-5.3,0-9.7-1.7-13-5c-3.4-3.4-5-7.8-5-13.3
			c0-5.5,1.7-9.9,5-13.1c3.4-3.3,7.7-4.9,13-4.9c5.5,0,10,1.6,13.4,4.9C1672.2,656.8,1673.9,661.2,1673.9,666.7z M1639.1,844.6
			V715.7h33v128.9H1639.1z"/>
		<path class="st1" d="M1765.2,848.5c-7.4,0-15.1-1.2-23.1-3.5c-8-2.3-16.3-6.5-24.9-12.5l15.7-23.2c6.5,4.6,12.5,7.4,17.9,8.3
			c5.4,0.9,10.2,1.3,14.3,1.3c5,0,8.8-0.9,11.3-2.8c2.6-1.9,3.9-4.6,3.9-8c0-3.3-1.5-6-4.5-8.1c-3-2.1-6.7-4.1-11.1-5.9
			s-9.2-3.7-14.4-5.8c-5.2-2.1-10.1-4.6-14.4-7.7c-4.4-3.1-8.1-7-11.1-11.6c-3-4.6-4.5-10.5-4.5-17.5c0-6.7,1.2-12.5,3.7-17.5
			c2.5-5,5.9-9.1,10.2-12.4c4.3-3.3,9.3-5.7,15-7.3c5.7-1.6,11.6-2.4,17.8-2.4c3.4,0,6.8,0.2,10.1,0.6c3.3,0.4,6.6,1.3,10.1,2.6
			c3.4,1.3,7.1,3,11,5.2c3.9,2.2,8.1,4.9,12.8,8.1l-15.5,23.2c-3.6-2.6-6.8-4.6-9.7-5.9c-2.8-1.4-5.3-2.4-7.5-3
			c-2.2-0.6-4.1-0.9-5.9-1c-1.8-0.1-3.6-0.1-5.3-0.1c-4.6,0-8,0.9-10.2,2.8c-2.1,1.9-3.2,4.3-3.2,7.2c0,2.7,1.5,5,4.4,6.8
			s6.6,3.6,11.1,5.4c4.5,1.8,9.3,3.8,14.4,5.9c5.2,2.2,10,4.9,14.4,8.3c4.5,3.4,8.2,7.4,11.1,12.2c2.9,4.8,4.4,10.8,4.4,18.1
			c0,7.2-1.2,13.4-3.5,18.6c-2.3,5.2-5.6,9.4-9.8,12.6c-4.2,3.3-9.3,5.6-15.2,7.1C1779,847.8,1772.4,848.5,1765.2,848.5z"/>
	</g>
</g>
</svg>
