<svg xmlns="http://www.w3.org/2000/svg" xmlns:xlink="http://www.w3.org/1999/xlink" width="750" zoomAndPan="magnify" viewBox="0 0 562.5 281.25" height="375" preserveAspectRatio="xMidYMid meet" version="1.0"><defs><g/><clipPath id="0454aa8a22"><path d="M 0.5 0 L 561.503906 0 L 561.503906 280.503906 L 0.5 280.503906 Z M 0.5 0 " clip-rule="nonzero"/></clipPath><clipPath id="18dbd4220a"><path d="M 68 227 L 524 227 L 524 280.503906 L 68 280.503906 Z M 68 227 " clip-rule="nonzero"/></clipPath><clipPath id="9479c8ba7d"><rect x="0" width="456" y="0" height="54"/></clipPath></defs><g clip-path="url(#0454aa8a22)"><path fill="#ffffff" d="M 0.5 0 L 561.503906 0 L 561.503906 280.503906 L 0.5 280.503906 Z M 0.5 0 " fill-opacity="1" fill-rule="nonzero"/><path fill="#ffffff" d="M 0.5 0 L 561.503906 0 L 561.503906 280.503906 L 0.5 280.503906 Z M 0.5 0 " fill-opacity="1" fill-rule="nonzero"/><path fill="#7d3a40" d="M 0.5 0 L 561.503906 0 L 561.503906 280.503906 L 0.5 280.503906 Z M 0.5 0 " fill-opacity="1" fill-rule="nonzero"/></g><path fill="#ffffff" d="M 213.710938 107.832031 L 160.625 138.738281 C 150.984375 144.300781 142.511719 129.667969 152.152344 124.101562 L 205.246094 93.207031 C 214.894531 87.636719 223.339844 102.273438 213.710938 107.832031 Z M 76.488281 93.386719 L 130.171875 123.808594 C 139.824219 129.382812 131.371094 144.027344 121.742188 138.46875 L 68.066406 108.035156 C 58.421875 102.46875 66.855469 87.824219 76.488281 93.386719 Z M 132.585938 219.820312 L 132.578125 158.074219 C 132.578125 153.398438 136.375 149.621094 141.039062 149.621094 C 145.707031 149.621094 149.492188 153.40625 149.492188 158.074219 L 149.480469 219.820312 C 149.480469 224.480469 145.710938 228.273438 141.035156 228.273438 C 136.367188 228.273438 132.582031 224.488281 132.582031 219.820312 Z M 67.796875 172.195312 L 93.574219 157.5625 C 103.203125 152 111.667969 166.644531 102.019531 172.214844 L 76.234375 186.835938 C 66.59375 192.402344 58.160156 177.761719 67.796875 172.195312 Z M 204.847656 187.320312 L 179.746094 172.179688 C 170.109375 166.617188 178.582031 151.980469 188.226562 157.546875 L 213.324219 172.699219 C 222.949219 178.257812 214.5 192.890625 204.847656 187.320312 Z M 149.527344 60.683594 L 149.535156 90.324219 C 149.535156 94.996094 145.738281 98.777344 141.074219 98.777344 C 136.40625 98.777344 132.621094 94.992188 132.621094 90.324219 L 132.632812 60.683594 C 132.632812 56.019531 136.402344 52.230469 141.078125 52.230469 C 145.746094 52.230469 149.53125 56.011719 149.53125 60.683594 Z M 149.527344 60.683594 " fill-opacity="1" fill-rule="nonzero"/><g clip-path="url(#18dbd4220a)"><g transform="matrix(1, 0, 0, 1, 68, 227)"><g clip-path="url(#9479c8ba7d)"><g fill="#ffffff" fill-opacity="1"><g transform="translate(1.362973, 43.145616)"><g><path d="M 26.296875 -27.984375 L 26.296875 -9.875 C 26.296875 -7.8125 25.832031 -6 24.90625 -4.4375 C 23.988281 -2.882812 22.65625 -1.691406 20.90625 -0.859375 C 19.15625 -0.0234375 17.085938 0.390625 14.703125 0.390625 C 11.097656 0.390625 8.300781 -0.53125 6.3125 -2.375 C 4.320312 -4.226562 3.328125 -6.753906 3.328125 -9.953125 L 3.328125 -27.984375 L 9.25 -27.984375 L 9.25 -10.859375 C 9.25 -8.703125 9.679688 -7.117188 10.546875 -6.109375 C 11.410156 -5.097656 12.847656 -4.59375 14.859375 -4.59375 C 16.796875 -4.59375 18.203125 -5.097656 19.078125 -6.109375 C 19.953125 -7.128906 20.390625 -8.722656 20.390625 -10.890625 L 20.390625 -27.984375 Z M 26.296875 -27.984375 "/></g></g><g transform="translate(30.996292, 43.145616)"><g><path d="M 22.8125 0 L 16.984375 0 L 16.984375 -12.5 C 16.984375 -14.039062 16.707031 -15.195312 16.15625 -15.96875 C 15.601562 -16.738281 14.726562 -17.125 13.53125 -17.125 C 11.894531 -17.125 10.710938 -16.578125 9.984375 -15.484375 C 9.265625 -14.398438 8.90625 -12.59375 8.90625 -10.0625 L 8.90625 0 L 3.0625 0 L 3.0625 -21.40625 L 7.515625 -21.40625 L 8.3125 -18.65625 L 8.640625 -18.65625 C 9.285156 -19.695312 10.175781 -20.476562 11.3125 -21 C 12.457031 -21.53125 13.757812 -21.796875 15.21875 -21.796875 C 17.707031 -21.796875 19.59375 -21.125 20.875 -19.78125 C 22.164062 -18.4375 22.8125 -16.492188 22.8125 -13.953125 Z M 22.8125 0 "/></g></g><g transform="translate(56.762731, 43.145616)"><g><path d="M 2.8125 -26.9375 C 2.8125 -28.832031 3.867188 -29.78125 5.984375 -29.78125 C 8.109375 -29.78125 9.171875 -28.832031 9.171875 -26.9375 C 9.171875 -26.03125 8.90625 -25.320312 8.375 -24.8125 C 7.84375 -24.3125 7.046875 -24.0625 5.984375 -24.0625 C 3.867188 -24.0625 2.8125 -25.019531 2.8125 -26.9375 Z M 8.90625 0 L 3.0625 0 L 3.0625 -21.40625 L 8.90625 -21.40625 Z M 8.90625 0 "/></g></g><g transform="translate(68.727088, 43.145616)"><g><path d="M 8.15625 0 L 0 -21.40625 L 6.109375 -21.40625 L 10.234375 -9.203125 C 10.703125 -7.660156 10.992188 -6.203125 11.109375 -4.828125 L 11.21875 -4.828125 C 11.28125 -6.046875 11.566406 -7.503906 12.078125 -9.203125 L 16.1875 -21.40625 L 22.296875 -21.40625 L 14.140625 0 Z M 8.15625 0 "/></g></g><g transform="translate(91.028649, 43.145616)"><g><path d="M 11.921875 -17.65625 C 10.679688 -17.65625 9.710938 -17.257812 9.015625 -16.46875 C 8.316406 -15.6875 7.914062 -14.570312 7.8125 -13.125 L 16 -13.125 C 15.976562 -14.570312 15.601562 -15.6875 14.875 -16.46875 C 14.144531 -17.257812 13.160156 -17.65625 11.921875 -17.65625 Z M 12.75 0.390625 C 9.300781 0.390625 6.609375 -0.5625 4.671875 -2.46875 C 2.734375 -4.375 1.765625 -7.066406 1.765625 -10.546875 C 1.765625 -14.128906 2.660156 -16.898438 4.453125 -18.859375 C 6.242188 -20.816406 8.722656 -21.796875 11.890625 -21.796875 C 14.910156 -21.796875 17.265625 -20.9375 18.953125 -19.21875 C 20.640625 -17.5 21.484375 -15.117188 21.484375 -12.078125 L 21.484375 -9.25 L 7.671875 -9.25 C 7.734375 -7.582031 8.222656 -6.285156 9.140625 -5.359375 C 10.066406 -4.429688 11.359375 -3.96875 13.015625 -3.96875 C 14.304688 -3.96875 15.523438 -4.097656 16.671875 -4.359375 C 17.816406 -4.628906 19.015625 -5.054688 20.265625 -5.640625 L 20.265625 -1.125 C 19.242188 -0.613281 18.148438 -0.234375 16.984375 0.015625 C 15.828125 0.265625 14.414062 0.390625 12.75 0.390625 Z M 12.75 0.390625 "/></g></g><g transform="translate(114.191644, 43.145616)"><g><path d="M 15 -21.796875 C 15.789062 -21.796875 16.453125 -21.738281 16.984375 -21.625 L 16.53125 -16.15625 C 16.0625 -16.28125 15.488281 -16.34375 14.8125 -16.34375 C 12.945312 -16.34375 11.492188 -15.863281 10.453125 -14.90625 C 9.421875 -13.945312 8.90625 -12.609375 8.90625 -10.890625 L 8.90625 0 L 3.0625 0 L 3.0625 -21.40625 L 7.484375 -21.40625 L 8.34375 -17.796875 L 8.640625 -17.796875 C 9.296875 -19.003906 10.1875 -19.972656 11.3125 -20.703125 C 12.445312 -21.429688 13.675781 -21.796875 15 -21.796875 Z M 15 -21.796875 "/></g></g><g transform="translate(131.994607, 43.145616)"><g><path d="M 18 -6.359375 C 18 -4.160156 17.234375 -2.484375 15.703125 -1.328125 C 14.179688 -0.179688 11.898438 0.390625 8.859375 0.390625 C 7.304688 0.390625 5.976562 0.28125 4.875 0.0625 C 3.78125 -0.144531 2.753906 -0.453125 1.796875 -0.859375 L 1.796875 -5.6875 C 2.878906 -5.175781 4.097656 -4.75 5.453125 -4.40625 C 6.816406 -4.0625 8.015625 -3.890625 9.046875 -3.890625 C 11.171875 -3.890625 12.234375 -4.5 12.234375 -5.71875 C 12.234375 -6.175781 12.09375 -6.550781 11.8125 -6.84375 C 11.53125 -7.132812 11.046875 -7.457031 10.359375 -7.8125 C 9.671875 -8.175781 8.75 -8.601562 7.59375 -9.09375 C 5.945312 -9.78125 4.738281 -10.414062 3.96875 -11 C 3.195312 -11.59375 2.632812 -12.269531 2.28125 -13.03125 C 1.9375 -13.789062 1.765625 -14.722656 1.765625 -15.828125 C 1.765625 -17.734375 2.5 -19.203125 3.96875 -20.234375 C 5.445312 -21.273438 7.535156 -21.796875 10.234375 -21.796875 C 12.816406 -21.796875 15.328125 -21.238281 17.765625 -20.125 L 16 -15.90625 C 14.925781 -16.363281 13.921875 -16.738281 12.984375 -17.03125 C 12.054688 -17.332031 11.109375 -17.484375 10.140625 -17.484375 C 8.421875 -17.484375 7.5625 -17.015625 7.5625 -16.078125 C 7.5625 -15.554688 7.835938 -15.101562 8.390625 -14.71875 C 8.941406 -14.332031 10.160156 -13.765625 12.046875 -13.015625 C 13.710938 -12.335938 14.9375 -11.703125 15.71875 -11.109375 C 16.5 -10.523438 17.070312 -9.847656 17.4375 -9.078125 C 17.8125 -8.316406 18 -7.410156 18 -6.359375 Z M 18 -6.359375 "/></g></g><g transform="translate(151.482151, 43.145616)"><g><path d="M 2.8125 -26.9375 C 2.8125 -28.832031 3.867188 -29.78125 5.984375 -29.78125 C 8.109375 -29.78125 9.171875 -28.832031 9.171875 -26.9375 C 9.171875 -26.03125 8.90625 -25.320312 8.375 -24.8125 C 7.84375 -24.3125 7.046875 -24.0625 5.984375 -24.0625 C 3.867188 -24.0625 2.8125 -25.019531 2.8125 -26.9375 Z M 8.90625 0 L 3.0625 0 L 3.0625 -21.40625 L 8.90625 -21.40625 Z M 8.90625 0 "/></g></g><g transform="translate(163.446508, 43.145616)"><g><path d="M 9.84375 0.390625 C 7.320312 0.390625 5.34375 -0.582031 3.90625 -2.53125 C 2.476562 -4.488281 1.765625 -7.195312 1.765625 -10.65625 C 1.765625 -14.164062 2.492188 -16.898438 3.953125 -18.859375 C 5.410156 -20.816406 7.425781 -21.796875 10 -21.796875 C 12.6875 -21.796875 14.738281 -20.75 16.15625 -18.65625 L 16.34375 -18.65625 C 16.050781 -20.257812 15.90625 -21.6875 15.90625 -22.9375 L 15.90625 -29.78125 L 21.765625 -29.78125 L 21.765625 0 L 17.28125 0 L 16.15625 -2.78125 L 15.90625 -2.78125 C 14.582031 -0.664062 12.5625 0.390625 9.84375 0.390625 Z M 11.890625 -4.265625 C 13.378906 -4.265625 14.472656 -4.695312 15.171875 -5.5625 C 15.867188 -6.4375 16.25 -7.914062 16.3125 -10 L 16.3125 -10.625 C 16.3125 -12.914062 15.957031 -14.5625 15.25 -15.5625 C 14.539062 -16.5625 13.390625 -17.0625 11.796875 -17.0625 C 10.492188 -17.0625 9.476562 -16.507812 8.75 -15.40625 C 8.03125 -14.300781 7.671875 -12.691406 7.671875 -10.578125 C 7.671875 -8.472656 8.035156 -6.894531 8.765625 -5.84375 C 9.492188 -4.789062 10.535156 -4.265625 11.890625 -4.265625 Z M 11.890625 -4.265625 "/></g></g><g transform="translate(188.255798, 43.145616)"><g><path d="M 16.65625 0 L 15.53125 -2.90625 L 15.375 -2.90625 C 14.382812 -1.664062 13.367188 -0.804688 12.328125 -0.328125 C 11.296875 0.148438 9.941406 0.390625 8.265625 0.390625 C 6.210938 0.390625 4.59375 -0.195312 3.40625 -1.375 C 2.226562 -2.550781 1.640625 -4.222656 1.640625 -6.390625 C 1.640625 -8.660156 2.429688 -10.332031 4.015625 -11.40625 C 5.609375 -12.488281 8.007812 -13.085938 11.21875 -13.203125 L 14.9375 -13.328125 L 14.9375 -14.265625 C 14.9375 -16.429688 13.820312 -17.515625 11.59375 -17.515625 C 9.882812 -17.515625 7.878906 -17 5.578125 -15.96875 L 3.640625 -19.90625 C 6.097656 -21.195312 8.828125 -21.84375 11.828125 -21.84375 C 14.703125 -21.84375 16.90625 -21.21875 18.4375 -19.96875 C 19.96875 -18.71875 20.734375 -16.816406 20.734375 -14.265625 L 20.734375 0 Z M 14.9375 -9.921875 L 12.671875 -9.84375 C 10.972656 -9.789062 9.707031 -9.484375 8.875 -8.921875 C 8.050781 -8.359375 7.640625 -7.503906 7.640625 -6.359375 C 7.640625 -4.710938 8.582031 -3.890625 10.46875 -3.890625 C 11.820312 -3.890625 12.90625 -4.273438 13.71875 -5.046875 C 14.53125 -5.828125 14.9375 -6.863281 14.9375 -8.15625 Z M 14.9375 -9.921875 "/></g></g><g transform="translate(211.935653, 43.145616)"><g><path d="M 9.84375 0.390625 C 7.320312 0.390625 5.34375 -0.582031 3.90625 -2.53125 C 2.476562 -4.488281 1.765625 -7.195312 1.765625 -10.65625 C 1.765625 -14.164062 2.492188 -16.898438 3.953125 -18.859375 C 5.410156 -20.816406 7.425781 -21.796875 10 -21.796875 C 12.6875 -21.796875 14.738281 -20.75 16.15625 -18.65625 L 16.34375 -18.65625 C 16.050781 -20.257812 15.90625 -21.6875 15.90625 -22.9375 L 15.90625 -29.78125 L 21.765625 -29.78125 L 21.765625 0 L 17.28125 0 L 16.15625 -2.78125 L 15.90625 -2.78125 C 14.582031 -0.664062 12.5625 0.390625 9.84375 0.390625 Z M 11.890625 -4.265625 C 13.378906 -4.265625 14.472656 -4.695312 15.171875 -5.5625 C 15.867188 -6.4375 16.25 -7.914062 16.3125 -10 L 16.3125 -10.625 C 16.3125 -12.914062 15.957031 -14.5625 15.25 -15.5625 C 14.539062 -16.5625 13.390625 -17.0625 11.796875 -17.0625 C 10.492188 -17.0625 9.476562 -16.507812 8.75 -15.40625 C 8.03125 -14.300781 7.671875 -12.691406 7.671875 -10.578125 C 7.671875 -8.472656 8.035156 -6.894531 8.765625 -5.84375 C 9.492188 -4.789062 10.535156 -4.265625 11.890625 -4.265625 Z M 11.890625 -4.265625 "/></g></g><g transform="translate(236.744944, 43.145616)"><g><path d="M 11.921875 -17.65625 C 10.679688 -17.65625 9.710938 -17.257812 9.015625 -16.46875 C 8.316406 -15.6875 7.914062 -14.570312 7.8125 -13.125 L 16 -13.125 C 15.976562 -14.570312 15.601562 -15.6875 14.875 -16.46875 C 14.144531 -17.257812 13.160156 -17.65625 11.921875 -17.65625 Z M 12.75 0.390625 C 9.300781 0.390625 6.609375 -0.5625 4.671875 -2.46875 C 2.734375 -4.375 1.765625 -7.066406 1.765625 -10.546875 C 1.765625 -14.128906 2.660156 -16.898438 4.453125 -18.859375 C 6.242188 -20.816406 8.722656 -21.796875 11.890625 -21.796875 C 14.910156 -21.796875 17.265625 -20.9375 18.953125 -19.21875 C 20.640625 -17.5 21.484375 -15.117188 21.484375 -12.078125 L 21.484375 -9.25 L 7.671875 -9.25 C 7.734375 -7.582031 8.222656 -6.285156 9.140625 -5.359375 C 10.066406 -4.429688 11.359375 -3.96875 13.015625 -3.96875 C 14.304688 -3.96875 15.523438 -4.097656 16.671875 -4.359375 C 17.816406 -4.628906 19.015625 -5.054688 20.265625 -5.640625 L 20.265625 -1.125 C 19.242188 -0.613281 18.148438 -0.234375 16.984375 0.015625 C 15.828125 0.265625 14.414062 0.390625 12.75 0.390625 Z M 12.75 0.390625 "/></g></g><g transform="translate(259.907938, 43.145616)"><g/></g><g transform="translate(270.091999, 43.145616)"><g><path d="M 9.84375 0.390625 C 7.320312 0.390625 5.34375 -0.582031 3.90625 -2.53125 C 2.476562 -4.488281 1.765625 -7.195312 1.765625 -10.65625 C 1.765625 -14.164062 2.492188 -16.898438 3.953125 -18.859375 C 5.410156 -20.816406 7.425781 -21.796875 10 -21.796875 C 12.6875 -21.796875 14.738281 -20.75 16.15625 -18.65625 L 16.34375 -18.65625 C 16.050781 -20.257812 15.90625 -21.6875 15.90625 -22.9375 L 15.90625 -29.78125 L 21.765625 -29.78125 L 21.765625 0 L 17.28125 0 L 16.15625 -2.78125 L 15.90625 -2.78125 C 14.582031 -0.664062 12.5625 0.390625 9.84375 0.390625 Z M 11.890625 -4.265625 C 13.378906 -4.265625 14.472656 -4.695312 15.171875 -5.5625 C 15.867188 -6.4375 16.25 -7.914062 16.3125 -10 L 16.3125 -10.625 C 16.3125 -12.914062 15.957031 -14.5625 15.25 -15.5625 C 14.539062 -16.5625 13.390625 -17.0625 11.796875 -17.0625 C 10.492188 -17.0625 9.476562 -16.507812 8.75 -15.40625 C 8.03125 -14.300781 7.671875 -12.691406 7.671875 -10.578125 C 7.671875 -8.472656 8.035156 -6.894531 8.765625 -5.84375 C 9.492188 -4.789062 10.535156 -4.265625 11.890625 -4.265625 Z M 11.890625 -4.265625 "/></g></g><g transform="translate(294.90129, 43.145616)"><g><path d="M 7.71875 -10.734375 C 7.71875 -8.617188 8.0625 -7.019531 8.75 -5.9375 C 9.445312 -4.851562 10.582031 -4.3125 12.15625 -4.3125 C 13.707031 -4.3125 14.820312 -4.847656 15.5 -5.921875 C 16.1875 -7.003906 16.53125 -8.609375 16.53125 -10.734375 C 16.53125 -12.859375 16.1875 -14.445312 15.5 -15.5 C 14.8125 -16.5625 13.679688 -17.09375 12.109375 -17.09375 C 10.554688 -17.09375 9.4375 -16.566406 8.75 -15.515625 C 8.0625 -14.460938 7.71875 -12.867188 7.71875 -10.734375 Z M 22.515625 -10.734375 C 22.515625 -7.253906 21.59375 -4.53125 19.75 -2.5625 C 17.914062 -0.59375 15.359375 0.390625 12.078125 0.390625 C 10.023438 0.390625 8.210938 -0.0546875 6.640625 -0.953125 C 5.066406 -1.859375 3.859375 -3.15625 3.015625 -4.84375 C 2.179688 -6.53125 1.765625 -8.492188 1.765625 -10.734375 C 1.765625 -14.234375 2.675781 -16.953125 4.5 -18.890625 C 6.320312 -20.828125 8.882812 -21.796875 12.1875 -21.796875 C 14.25 -21.796875 16.0625 -21.347656 17.625 -20.453125 C 19.195312 -19.566406 20.40625 -18.285156 21.25 -16.609375 C 22.09375 -14.941406 22.515625 -12.984375 22.515625 -10.734375 Z M 22.515625 -10.734375 "/></g></g><g transform="translate(319.174577, 43.145616)"><g/></g><g transform="translate(329.358638, 43.145616)"><g><path d="M 15.375 0 L 8.640625 -21.953125 L 8.453125 -21.953125 C 8.703125 -17.484375 8.828125 -14.503906 8.828125 -13.015625 L 8.828125 0 L 3.515625 0 L 3.515625 -27.984375 L 11.59375 -27.984375 L 18.21875 -6.578125 L 18.34375 -6.578125 L 25.359375 -27.984375 L 33.4375 -27.984375 L 33.4375 0 L 27.90625 0 L 27.90625 -13.25 C 27.90625 -13.875 27.914062 -14.59375 27.9375 -15.40625 C 27.957031 -16.226562 28.046875 -18.398438 28.203125 -21.921875 L 28.03125 -21.921875 L 20.8125 0 Z M 15.375 0 "/></g></g><g transform="translate(366.323714, 43.145616)"><g><path d="M 2.8125 -26.9375 C 2.8125 -28.832031 3.867188 -29.78125 5.984375 -29.78125 C 8.109375 -29.78125 9.171875 -28.832031 9.171875 -26.9375 C 9.171875 -26.03125 8.90625 -25.320312 8.375 -24.8125 C 7.84375 -24.3125 7.046875 -24.0625 5.984375 -24.0625 C 3.867188 -24.0625 2.8125 -25.019531 2.8125 -26.9375 Z M 8.90625 0 L 3.0625 0 L 3.0625 -21.40625 L 8.90625 -21.40625 Z M 8.90625 0 "/></g></g><g transform="translate(378.288071, 43.145616)"><g><path d="M 22.8125 0 L 16.984375 0 L 16.984375 -12.5 C 16.984375 -14.039062 16.707031 -15.195312 16.15625 -15.96875 C 15.601562 -16.738281 14.726562 -17.125 13.53125 -17.125 C 11.894531 -17.125 10.710938 -16.578125 9.984375 -15.484375 C 9.265625 -14.398438 8.90625 -12.59375 8.90625 -10.0625 L 8.90625 0 L 3.0625 0 L 3.0625 -21.40625 L 7.515625 -21.40625 L 8.3125 -18.65625 L 8.640625 -18.65625 C 9.285156 -19.695312 10.175781 -20.476562 11.3125 -21 C 12.457031 -21.53125 13.757812 -21.796875 15.21875 -21.796875 C 17.707031 -21.796875 19.59375 -21.125 20.875 -19.78125 C 22.164062 -18.4375 22.8125 -16.492188 22.8125 -13.953125 Z M 22.8125 0 "/></g></g><g transform="translate(404.05451, 43.145616)"><g><path d="M 22.8125 0 L 16.984375 0 L 16.984375 -12.5 C 16.984375 -15.582031 15.832031 -17.125 13.53125 -17.125 C 11.894531 -17.125 10.710938 -16.566406 9.984375 -15.453125 C 9.265625 -14.347656 8.90625 -12.550781 8.90625 -10.0625 L 8.90625 0 L 3.0625 0 L 3.0625 -29.78125 L 8.90625 -29.78125 L 8.90625 -23.71875 C 8.90625 -23.25 8.859375 -22.140625 8.765625 -20.390625 L 8.640625 -18.65625 L 8.9375 -18.65625 C 10.238281 -20.75 12.304688 -21.796875 15.140625 -21.796875 C 17.648438 -21.796875 19.554688 -21.117188 20.859375 -19.765625 C 22.160156 -18.421875 22.8125 -16.484375 22.8125 -13.953125 Z M 22.8125 0 "/></g></g><g transform="translate(429.820949, 43.145616)"><g><path d="M 7.71875 -10.734375 C 7.71875 -8.617188 8.0625 -7.019531 8.75 -5.9375 C 9.445312 -4.851562 10.582031 -4.3125 12.15625 -4.3125 C 13.707031 -4.3125 14.820312 -4.847656 15.5 -5.921875 C 16.1875 -7.003906 16.53125 -8.609375 16.53125 -10.734375 C 16.53125 -12.859375 16.1875 -14.445312 15.5 -15.5 C 14.8125 -16.5625 13.679688 -17.09375 12.109375 -17.09375 C 10.554688 -17.09375 9.4375 -16.566406 8.75 -15.515625 C 8.0625 -14.460938 7.71875 -12.867188 7.71875 -10.734375 Z M 22.515625 -10.734375 C 22.515625 -7.253906 21.59375 -4.53125 19.75 -2.5625 C 17.914062 -0.59375 15.359375 0.390625 12.078125 0.390625 C 10.023438 0.390625 8.210938 -0.0546875 6.640625 -0.953125 C 5.066406 -1.859375 3.859375 -3.15625 3.015625 -4.84375 C 2.179688 -6.53125 1.765625 -8.492188 1.765625 -10.734375 C 1.765625 -14.234375 2.675781 -16.953125 4.5 -18.890625 C 6.320312 -20.828125 8.882812 -21.796875 12.1875 -21.796875 C 14.25 -21.796875 16.0625 -21.347656 17.625 -20.453125 C 19.195312 -19.566406 20.40625 -18.285156 21.25 -16.609375 C 22.09375 -14.941406 22.515625 -12.984375 22.515625 -10.734375 Z M 22.515625 -10.734375 "/></g></g></g></g></g></g></svg>