<?xml version="1.0" encoding="UTF-8"?>
<svg xmlns="http://www.w3.org/2000/svg" id="Camada_2" data-name="Camada 2" viewBox="0 0 1920 590.6">
  <defs>
    <style>
      .cls-1 {
        fill: #270099;
      }

      .cls-2 {
        fill: #1450ef;
      }

      .cls-3 {
        fill: #fa0;
      }

      .cls-4 {
        fill: #0e004b;
      }
    </style>
  </defs>
  <g id="Camada_1-2" data-name="Camada 1">
    <g>
      <path class="cls-4" d="M746.65,168.85c4.48,11.39,10.71,21.3,18.72,29.7,8,8.41,17.5,14.99,28.48,19.73,10.99,4.75,23.12,7.12,36.41,7.12,20.61,0,38.18-4.13,52.69-12.41,14.51-8.27,24.75-20.95,30.72-38.04l42.31,6.1c-2.44,13.29-7.26,25.3-14.44,36.01-7.19,10.72-16.21,19.67-27.06,26.85-10.85,7.19-23.26,12.68-37.23,16.48-13.97,3.8-29.23,5.7-45.77,5.7-20.89,0-39.81-3.25-56.76-9.77-16.95-6.51-31.4-15.66-43.33-27.46-11.94-11.8-21.09-25.9-27.46-42.31-6.38-16.41-9.56-34.51-9.56-54.32,0-18.17,3.25-35.26,9.77-51.26,6.51-16,15.73-29.97,27.67-41.91,11.93-11.93,26.45-21.42,43.53-28.48,17.09-7.05,36.07-10.58,56.96-10.58,16.54,0,31.74,1.9,45.57,5.7,13.83,3.8,26.17,9.29,37.02,16.48,10.85,7.19,19.8,16.14,26.85,26.85,7.05,10.72,11.93,22.85,14.65,36.41l-42.31,5.7c-6.24-17.09-16.68-29.76-31.33-38.04-14.65-8.27-32.55-12.41-53.71-12.41-13.29,0-25.37,2.24-36.21,6.71-10.85,4.48-20.21,10.78-28.07,18.92-7.87,8.14-13.97,17.77-18.31,28.89-4.34,11.13-6.65,23.46-6.92,37.02.27,13.02,2.64,25.23,7.12,36.62Z"></path>
      <path class="cls-4" d="M1129.7,262.38c-10.15,0-17.44-2.53-21.9-7.61-4.45-5.07-6.68-11.44-6.68-19.11v-16.33c-1.98,7.92-5.19,14.79-9.65,20.6-4.45,5.82-9.78,10.64-15.96,14.47-6.19,3.84-12.87,6.74-20.04,8.72-7.18,1.98-14.47,2.97-21.9,2.97-8.17,0-16.27-.99-24.31-2.97-8.04-1.98-15.22-5.13-21.53-9.46-6.31-4.33-11.38-9.77-15.22-16.33-3.84-6.55-5.75-14.53-5.75-23.94s2.04-17.38,6.12-23.94c4.08-6.55,9.34-12,15.77-16.33,6.43-4.33,13.73-7.79,21.89-10.39,8.17-2.6,16.33-4.51,24.49-5.75l66.06-9.28v-10.39c0-5.44-1.43-9.83-4.27-13.17-2.85-3.34-6.44-5.94-10.76-7.79-4.33-1.86-9.03-3.15-14.1-3.9-5.07-.74-9.84-1.11-14.29-1.11-11.63,0-21.47,2.17-29.5,6.49-8.04,4.33-12.68,13.05-13.92,26.16l-36.37-3.34c0-10.88,2.28-20.16,6.87-27.83,4.57-7.67,10.58-13.97,18-18.93,7.42-4.95,15.9-8.59,25.42-10.95,9.52-2.35,19.36-3.53,29.5-3.53,10.88,0,21.28,1.06,31.17,3.15,9.89,2.1,18.56,5.51,25.98,10.21,7.42,4.7,13.3,10.7,17.63,18,4.33,7.3,6.5,16.02,6.5,26.16v93.15h15.96v32.29h-25.24ZM1041,182.59c-3.96.74-8.04,1.86-12.25,3.34-4.21,1.48-7.98,3.34-11.32,5.57-3.34,2.23-6,5.01-7.98,8.35-1.98,3.34-2.97,7.12-2.97,11.32.24,4.21,1.48,7.74,3.71,10.58,2.23,2.85,5.07,5.14,8.54,6.87,3.46,1.73,7.24,2.85,11.32,3.34,4.08.5,8.1.62,12.06.37,6.92-.24,13.85-1.3,20.78-3.15,6.92-1.86,13.23-4.64,18.93-8.35,5.69-3.71,10.33-8.47,13.92-14.29,3.58-5.81,5.38-12.68,5.38-20.6v-12.99l-60.12,9.65Z"></path>
      <path class="cls-4" d="M1210.97,79.42c5.94,0,10.58,1.77,13.92,5.3,3.34,3.54,5.01,8.09,5.01,13.64v164.02h-38.97V79.42h20.04Z"></path>
      <path class="cls-4" d="M1310.06,215.8c2.97,4.82,6.62,8.66,10.95,11.5,4.33,2.85,9.21,4.82,14.66,5.94,5.44,1.11,11.26,1.67,17.44,1.67,3.21,0,7.3-.19,12.25-.56,4.95-.37,9.65-1.17,14.1-2.41,4.45-1.24,8.29-3.28,11.5-6.12,3.21-2.84,4.57-6.74,4.08-11.69,0-4.7-2.35-8.78-7.05-12.25-4.7-3.46-10.39-6.31-17.07-8.54-6.68-2.23-13.55-4.08-20.6-5.57-7.05-1.48-13.05-2.84-18-4.08-6.44-1.73-13.12-3.9-20.04-6.49-6.93-2.6-13.24-5.87-18.93-9.83-5.69-3.95-10.27-8.84-13.73-14.66-3.47-5.81-5.2-12.68-5.2-20.6,0-11.38,2.66-20.53,7.98-27.46,5.32-6.92,12-12.25,20.04-15.96,8.04-3.71,16.82-6.18,26.35-7.42,9.52-1.23,18.49-1.86,26.91-1.86,8.91,0,17.87.87,26.91,2.6,9.03,1.73,17.32,4.95,24.87,9.65,7.54,4.7,13.85,11.01,18.93,18.93,5.07,7.92,7.85,18.18,8.35,30.8l-36,3.34c-.74-6.92-2.41-12.55-5.01-16.89-2.6-4.33-5.82-7.79-9.65-10.39-3.84-2.6-8.23-4.39-13.17-5.38-4.95-.99-10.02-1.48-15.22-1.48-3.47,0-7.61.13-12.43.37-4.82.25-9.41,1.06-13.73,2.41-4.33,1.36-8.04,3.47-11.13,6.31-3.1,2.85-4.64,6.74-4.64,11.69,0,2.97.86,5.57,2.6,7.79,1.73,2.23,4.27,4.27,7.61,6.12s7.61,3.65,12.8,5.38c5.19,1.73,11.25,3.47,18.18,5.2,7.67,1.73,16.14,3.84,25.42,6.31,9.28,2.48,17.94,5.75,25.98,9.83,8.04,4.08,14.84,9.41,20.41,15.96,5.57,6.56,8.35,14.91,8.35,25.05,0,11.38-2.66,20.54-7.98,27.46-5.32,6.93-12.06,12.25-20.22,15.96-8.17,3.71-17.14,6.25-26.91,7.61-9.78,1.36-18.99,2.04-27.65,2.04-9.16,0-18.56-.87-28.2-2.6-9.65-1.73-18.56-4.88-26.72-9.46-8.16-4.57-14.97-11.13-20.41-19.67-5.44-8.54-8.53-19.61-9.28-33.22l36.74-4.08c.74,7.67,2.6,13.92,5.57,18.74Z"></path>
      <path class="cls-4" d="M1667.31,262.38v-40.08c-2.23,7.18-5.57,13.49-10.02,18.93-4.45,5.45-9.53,10.08-15.22,13.92-5.69,3.84-11.88,6.68-18.56,8.54-6.68,1.86-13.49,2.78-20.41,2.78-12.87,0-24.68-2.35-35.44-7.05-10.76-4.7-20.11-11.19-28.02-19.48-7.92-8.29-14.1-18.12-18.56-29.5-4.45-11.38-6.68-23.62-6.68-36.74s2.16-25.73,6.49-37.11c4.33-11.38,10.39-21.28,18.18-29.69,7.79-8.41,17.07-15.03,27.83-19.85,10.76-4.82,22.57-7.24,35.44-7.24,13.6,0,26.04,3.59,37.3,10.76,11.26,7.18,20.1,18.18,26.54,33.03V0h39.71v262.38h-38.6ZM1554.49,172.57c0,8.16,1.36,15.84,4.08,23.01,2.72,7.18,6.49,13.49,11.32,18.93,4.82,5.45,10.7,9.71,17.63,12.8,6.92,3.1,14.6,4.64,23.01,4.64s16.39-1.54,23.19-4.64c6.8-3.09,12.68-7.36,17.63-12.8,4.95-5.44,8.66-11.75,11.13-18.93,2.47-7.17,3.71-14.84,3.71-23.01s-1.24-15.4-3.71-22.45c-2.48-7.05-6.19-13.3-11.13-18.74-4.95-5.44-10.83-9.65-17.63-12.62-6.81-2.97-14.54-4.45-23.19-4.45s-16.09,1.48-23.01,4.45c-6.93,2.97-12.8,7.18-17.63,12.62-4.82,5.44-8.6,11.69-11.32,18.74-2.73,7.05-4.08,14.54-4.08,22.45Z"></path>
      <path class="cls-4" d="M1729.62,172.94c0-12.86,2.23-24.99,6.68-36.37,4.45-11.38,10.88-21.28,19.3-29.69,8.41-8.41,18.49-15.15,30.25-20.23,11.75-5.07,24.8-7.61,39.15-7.61s27.71,2.54,39.34,7.61c11.63,5.07,21.58,11.88,29.87,20.41,8.29,8.54,14.66,18.5,19.11,29.88,4.45,11.38,6.68,23.51,6.68,36.37s-2.41,25.73-7.24,37.11c-4.82,11.38-11.51,21.22-20.04,29.5-8.54,8.29-18.56,14.72-30.06,19.3-11.51,4.57-24.07,6.87-37.67,6.87s-26.23-2.29-37.85-6.87c-11.63-4.58-21.71-11.01-30.25-19.3-8.54-8.29-15.22-18.12-20.04-29.5-4.82-11.38-7.24-23.87-7.24-37.48ZM1824.99,230.09c8.41,0,16.08-1.48,23.01-4.45,6.92-2.97,12.8-6.99,17.63-12.06,4.82-5.07,8.54-11.13,11.13-18.18,2.6-7.05,3.9-14.66,3.9-22.82s-1.3-15.4-3.9-22.45c-2.6-7.05-6.31-13.11-11.13-18.18-4.82-5.07-10.7-9.09-17.63-12.06-6.93-2.97-14.6-4.45-23.01-4.45s-16.09,1.48-23.01,4.45c-6.93,2.97-12.8,6.99-17.63,12.06-4.82,5.07-8.6,11.13-11.32,18.18-2.73,7.05-4.08,14.54-4.08,22.45s1.36,15.71,4.08,22.64c2.72,6.93,6.5,12.99,11.32,18.18,4.82,5.2,10.7,9.28,17.63,12.25,6.92,2.97,14.59,4.45,23.01,4.45Z"></path>
      <path class="cls-4" d="M931.54,495.27c0-12.86,2.23-24.99,6.68-36.37,4.45-11.38,10.88-21.27,19.3-29.69,8.41-8.41,18.49-15.15,30.24-20.22,11.75-5.07,24.8-7.61,39.15-7.61s27.7,2.54,39.34,7.61c11.63,5.07,21.58,11.88,29.87,20.41,8.29,8.54,14.66,18.5,19.11,29.87,4.45,11.38,6.68,23.51,6.68,36.37s-2.41,25.73-7.24,37.11c-4.82,11.38-11.5,21.22-20.04,29.5-8.53,8.29-18.55,14.72-30.06,19.3-11.5,4.57-24.06,6.87-37.67,6.87s-26.22-2.29-37.85-6.87c-11.63-4.57-21.71-11.01-30.24-19.3-8.53-8.29-15.22-18.12-20.04-29.5-4.82-11.38-7.24-23.87-7.24-37.48ZM1026.91,552.42c8.41,0,16.08-1.48,23.01-4.45,6.92-2.97,12.8-6.99,17.63-12.06,4.82-5.07,8.54-11.13,11.13-18.18,2.6-7.05,3.9-14.66,3.9-22.82s-1.3-15.4-3.9-22.45c-2.6-7.05-6.31-13.11-11.13-18.18-4.82-5.07-10.71-9.09-17.63-12.06-6.93-2.97-14.6-4.45-23.01-4.45s-16.08,1.48-23.01,4.45c-6.93,2.97-12.8,6.99-17.63,12.06-4.82,5.07-8.6,11.13-11.32,18.18-2.73,7.05-4.08,14.54-4.08,22.45s1.36,15.71,4.08,22.64c2.72,6.93,6.49,12.99,11.32,18.18,4.82,5.19,10.7,9.28,17.63,12.25,6.92,2.97,14.6,4.45,23.01,4.45Z"></path>
      <path class="cls-3" d="M491.36,198.24h98.27V5.94h-196.54v96.49c0,49.32-37.86,89.88-86.72,95.47h-109.83v96.49c0,53.15-43.95,96.15-98.27,96.15H0v192.3h196.54v-96.49c0-53.15,43.95-96.15,98.27-96.15s98.27,43,98.27,96.15v96.49h196.54v-192.3h-98.27c-54.32,0-98.27-43-98.27-96.15h0c0-53.15,43.95-96.15,98.27-96.15Z"></path>
      <path class="cls-2" d="M392.82,479.28l.26,103.56h196.54v-192.3c-29.47.62-55.73.47-78.15,0-29.89-.63-45.12-1.67-62.7-9.7-14.45-6.6-24.41-16.77-30.75-22.99-4.18-4.65-10.42-10.71-15.23-21.2,0,0-3.67-7.99-5.92-17.48-3.87-16.31-3.79-61.04-3.79-121.26-64.77.05-131.77-.05-196.54,0-2.99,105.08,11.79,122.33-33.19,168.56-39.88,36.17-96.76,20.5-163.35,24.08v192.3s197.22-.06,196.54,0c-2.59.24-1.12-46.74.08-101.08.76-34.61,24.69-59.24,29.78-64.57,26.57-27.84,66.44-27.84,78.87-26.57,8.72.89,40.22,5.56,64.97,35.3,18.11,21.77,21.93,44.16,22.58,53.35Z"></path>
      <rect class="cls-4" x="0" y="390.26" width="196.44" height="193.09"></rect>
      <rect class="cls-1" x="196.59" y="198.22" width="196.44" height="192.34"></rect>
      <path class="cls-1" d="M196.62,481.76c.45-8.41,2.94-34.96,23.63-58.59,25.28-28.87,59.07-32.09,66.04-32.61-29.95-.1-59.9-.21-89.85-.31l.17,91.51Z"></path>
      <path class="cls-1" d="M196.54,294.39c-.45,8.41-4.16,39.41-24.86,63.04-25.28,28.87-65.27,32.3-72.24,32.82,29.95.1,68.19,0,98.14.11l-1.04-95.97Z"></path>
      <path class="cls-4" d="M706.74,586.48v-259.12h112.03c13.26,0,25.98,1.5,38.16,4.5,12.18,3,23,7.77,32.47,14.3,9.47,6.54,17.11,15.33,22.93,26.36,5.82,11.03,8.73,24.59,8.73,40.67s-2.84,30.25-8.52,41.69c-5.68,11.44-13.19,20.64-22.53,27.59-9.34,6.95-20.09,12.06-32.27,15.33-12.18,3.27-24.76,4.9-37.75,4.9h-67.79v83.79h-45.46ZM752.2,465.91h65.35c7.31,0,14.41-.75,21.31-2.25,6.9-1.49,13.05-4.29,18.47-8.38,5.41-4.09,9.74-9.46,12.99-16.14,3.25-6.67,4.87-15.05,4.87-25.14s-1.69-18.66-5.07-24.93c-3.39-6.26-7.92-11.03-13.6-14.3-5.68-3.27-11.91-5.38-18.67-6.34-6.77-.95-13.53-1.43-20.3-1.43h-65.35v98.91Z"></path>
      <path class="cls-4" d="M1166.95,404.71c7.99,0,14.36,2.38,19.11,7.12,4.74,4.75,7.12,11.12,7.12,19.11v2.62c5.75-8.24,12.74-15.36,20.99-21.36,8.25-6,16.61-8.99,25.11-8.99h28.56v36.35h-31.93c-7,0-13.12,1.25-18.36,3.75-5.25,2.5-9.56,6.06-12.93,10.68-3.37,4.63-5.94,10.37-7.68,17.24-1.75,6.87-2.62,14.56-2.62,23.05v92.19h-39.35v-146.16h-16.11v-35.6h28.11Z"></path>
      <path class="cls-4" d="M1451.77,496.16c0-12.99,2.25-25.23,6.75-36.73,4.5-11.49,10.99-21.49,19.49-29.98,8.49-8.49,18.67-15.3,30.54-20.43,11.86-5.12,25.05-7.68,39.54-7.68s27.98,2.56,39.73,7.68c11.74,5.12,21.79,11.99,30.17,20.61,8.37,8.62,14.8,18.68,19.3,30.17,4.5,11.49,6.75,23.74,6.75,36.73s-2.44,25.99-7.31,37.48c-4.87,11.49-11.62,21.43-20.24,29.79-8.62,8.37-18.74,14.87-30.36,19.49-11.62,4.62-24.3,6.93-38.04,6.93s-26.48-2.31-38.23-6.93c-11.75-4.62-21.92-11.11-30.54-19.49-8.62-8.37-15.37-18.3-20.24-29.79-4.87-11.49-7.31-24.11-7.31-37.85ZM1548.09,553.87c8.49,0,16.24-1.5,23.24-4.5,6.99-3,12.93-7.06,17.8-12.18,4.87-5.12,8.62-11.24,11.24-18.36,2.62-7.12,3.94-14.8,3.94-23.05s-1.31-15.55-3.94-22.67c-2.62-7.12-6.37-13.24-11.24-18.36-4.87-5.12-10.81-9.18-17.8-12.18-7-3-14.75-4.5-23.24-4.5s-16.24,1.5-23.24,4.5c-7,3-12.93,7.06-17.8,12.18-4.87,5.12-8.69,11.24-11.43,18.36-2.75,7.12-4.12,14.68-4.12,22.67s1.37,15.87,4.12,22.86c2.74,7,6.56,13.12,11.43,18.36,4.87,5.25,10.8,9.37,17.8,12.37,6.99,3,14.74,4.5,23.24,4.5Z"></path>
      <path class="cls-4" d="M1298.12,403.21c8.99,0,16.86-2.12,23.61-6.37,6.74-4.25,10.99-11.24,12.74-20.99l6.75-26.98h31.86l-11.24,55.84h64.84v33.73h-58.47v117.68h65.59v34.11l-59.59.37c-13.24-.25-24.24-4.12-32.98-11.62-8.75-7.5-13.12-18.98-13.12-34.48v-106.06h-35.98v-35.23h6Z"></path>
      <rect class="cls-4" x="1190.93" width="37.85" height="37.85"></rect>
    </g>
  </g>
</svg>
